<svg xmlns="http://www.w3.org/2000/svg" class="creature creature-c01 c01 state-baby" viewBox="0 0 256 256" width="256" height="256" role="img" aria-label="Nimbo baby"><ellipse class="shadow" cx="128" cy="234" rx="64" ry="9" fill="#2b2240" opacity="0.13"/><g class="art" transform="translate(128 232) scale(0.88) translate(-128 -232)"><g class="feet"><ellipse cx="98" cy="220" rx="22" ry="11" fill="#cfe6fb" stroke="#4a86c4" stroke-width="6" /><ellipse cx="158" cy="220" rx="22" ry="11" fill="#cfe6fb" stroke="#4a86c4" stroke-width="6" /></g><g class="body"><ellipse cx="84" cy="150" rx="40" ry="40" fill="#4a86c4" stroke="#4a86c4" stroke-width="12" stroke-linejoin="round"/><ellipse cx="172" cy="150" rx="40" ry="40" fill="#4a86c4" stroke="#4a86c4" stroke-width="12" stroke-linejoin="round"/><ellipse cx="128" cy="112" rx="50" ry="50" fill="#4a86c4" stroke="#4a86c4" stroke-width="12" stroke-linejoin="round"/><ellipse cx="128" cy="168" rx="56" ry="56" fill="#4a86c4" stroke="#4a86c4" stroke-width="12" stroke-linejoin="round"/><ellipse cx="106" cy="96" rx="24" ry="24" fill="#4a86c4" stroke="#4a86c4" stroke-width="12" stroke-linejoin="round"/><ellipse cx="150" cy="96" rx="24" ry="24" fill="#4a86c4" stroke="#4a86c4" stroke-width="12" stroke-linejoin="round"/><ellipse cx="84" cy="150" rx="40" ry="40" fill="#e3f0ff"/><ellipse cx="172" cy="150" rx="40" ry="40" fill="#e3f0ff"/><ellipse cx="128" cy="112" rx="50" ry="50" fill="#e3f0ff"/><ellipse cx="128" cy="168" rx="56" ry="56" fill="#e3f0ff"/><ellipse cx="106" cy="96" rx="24" ry="24" fill="#e3f0ff"/><ellipse cx="150" cy="96" rx="24" ry="24" fill="#e3f0ff"/></g><ellipse cx="128" cy="196" rx="60" ry="16" fill="#cfe6fb" opacity="0.8"/><g class="face"><ellipse class="blush" cx="78" cy="176" rx="11" ry="7" fill="#ff8fa3" opacity="0.65"/><ellipse class="blush" cx="178" cy="176" rx="11" ry="7" fill="#ff8fa3" opacity="0.65"/><g class="eye"><ellipse cx="100" cy="150" rx="14" ry="16.1" fill="#2b2240"/><circle cx="95.8" cy="144.1" r="5.6" fill="#fff"/><circle cx="104.9" cy="155.3" r="2.5" fill="#fff"/></g><g class="eye"><ellipse cx="156" cy="150" rx="14" ry="16.1" fill="#2b2240"/><circle cx="151.8" cy="144.1" r="5.6" fill="#fff"/><circle cx="160.9" cy="155.3" r="2.5" fill="#fff"/></g><path class="mouth" d="M119 172 Q128 186 137 172" fill="none" stroke="#2b2240" stroke-width="4.5" stroke-linecap="round"/></g></g></svg>
