<svg xmlns="http://www.w3.org/2000/svg" class="creature creature-c02 c02 state-baby" viewBox="0 0 256 256" width="256" height="256" role="img" aria-label="Pebbo baby"><ellipse class="shadow" cx="128" cy="234" rx="64" ry="9" fill="#2b2240" opacity="0.13"/><g class="art" transform="translate(128 232) scale(0.88) translate(-128 -232)"><g class="feet"><ellipse cx="66" cy="206" rx="22" ry="16" fill="#8fd0b8" stroke="#3f8f78" stroke-width="6" /><ellipse cx="190" cy="206" rx="22" ry="16" fill="#8fd0b8" stroke="#3f8f78" stroke-width="6" /></g><g class="tail"><path d="M200 218 L226 226 L202 230Z" fill="#8fd0b8" stroke="#3f8f78" stroke-width="6" stroke-linejoin="round" stroke-linecap="round" /></g><g class="body"><path d="M44 176 C44 90 84 60 128 60 C172 60 212 90 212 176 C212 196 190 204 128 204 C66 204 44 196 44 176Z" fill="#8d95ad" stroke="#4a5668" stroke-width="6" stroke-linejoin="round" stroke-linecap="round" /><ellipse cx="92" cy="112" rx="18" ry="13" fill="#bcc3d6" stroke="none"  stroke-width="0" transform="rotate(-25 92 112)"/><ellipse cx="128" cy="92" rx="20" ry="14" fill="#bcc3d6" stroke="none"  stroke-width="0"/><ellipse cx="166" cy="118" rx="16" ry="12" fill="#bcc3d6" stroke="none"  stroke-width="0" transform="rotate(25 166 118)"/><ellipse cx="70" cy="160" rx="14" ry="10" fill="#bcc3d6" stroke="none"  stroke-width="0"/><ellipse cx="190" cy="160" rx="14" ry="10" fill="#bcc3d6" stroke="none"  stroke-width="0"/></g><g class="head"><ellipse cx="128" cy="166" rx="56" ry="46" fill="#8fd0b8" stroke="#3f8f78" stroke-width="6" /></g><g class="face"><ellipse class="blush" cx="82" cy="186" rx="11" ry="7" fill="#ff8fa3" opacity="0.65"/><ellipse class="blush" cx="174" cy="186" rx="11" ry="7" fill="#ff8fa3" opacity="0.65"/><g class="eye"><ellipse cx="102" cy="160" rx="14" ry="16.1" fill="#2b2240"/><circle cx="97.8" cy="154.1" r="5.6" fill="#fff"/><circle cx="106.9" cy="165.3" r="2.5" fill="#fff"/></g><g class="eye"><ellipse cx="154" cy="160" rx="14" ry="16.1" fill="#2b2240"/><circle cx="149.8" cy="154.1" r="5.6" fill="#fff"/><circle cx="158.9" cy="165.3" r="2.5" fill="#fff"/></g><path class="mouth" d="M119 182 Q128 196 137 182" fill="none" stroke="#2b2240" stroke-width="4.5" stroke-linecap="round"/></g></g></svg>
