<svg xmlns="http://www.w3.org/2000/svg" class="creature creature-c04 c04 state-egg" viewBox="0 0 256 256" width="256" height="256" role="img" aria-label="Starlo egg"><ellipse class="shadow" cx="128" cy="240" rx="60" ry="8" fill="#2b2240" opacity="0.13"/><defs><clipPath id="c04-eclip"><path d="M128 24 C82 24 48 98 48 150 C48 202 82 234 128 234 C174 234 208 202 208 150 C208 98 174 24 128 24Z"/></clipPath></defs><g class="egg-body"><path d="M128 24 C82 24 48 98 48 150 C48 202 82 234 128 234 C174 234 208 202 208 150 C208 98 174 24 128 24Z" fill="#6b6fd6"/><g class="pattern" clip-path="url(#c04-eclip)"><path d="M90 66L93.7 74.9L103.3 75.7L96 81.9L98.2 91.3L90 86.3L81.8 91.3L84 81.9L76.7 75.7L86.3 74.9Z" fill="#ffe27a" stroke="#caa21a" stroke-width="2" stroke-linejoin="round"/><path d="M160 92L164.8 103.4L177.1 104.4L167.7 112.5L170.6 124.6L160 118.1L149.4 124.6L152.3 112.5L142.9 104.4L155.2 103.4Z" fill="#ffe27a" stroke="#caa21a" stroke-width="2" stroke-linejoin="round"/><path d="M110 158L113.2 165.6L121.4 166.3L115.1 171.7L117.1 179.7L110 175.4L102.9 179.7L104.9 171.7L98.6 166.3L106.8 165.6Z" fill="#ffe27a" stroke="#caa21a" stroke-width="2" stroke-linejoin="round"/><path d="M170 186L173.7 194.9L183.3 195.7L176 201.9L178.2 211.3L170 206.3L161.8 211.3L164 201.9L156.7 195.7L166.3 194.9Z" fill="#ffe27a" stroke="#caa21a" stroke-width="2" stroke-linejoin="round"/><path d="M80 180L82.6 186.4L89.5 186.9L84.3 191.4L85.9 198.1L80 194.5L74.1 198.1L75.7 191.4L70.5 186.9L77.4 186.4Z" fill="#ffe27a" stroke="#caa21a" stroke-width="2" stroke-linejoin="round"/><ellipse cx="140" cy="60" rx="4" ry="4" fill="#c9cbff"/><ellipse cx="60" cy="130" rx="4" ry="4" fill="#c9cbff"/><ellipse cx="190" cy="150" rx="4" ry="4" fill="#c9cbff"/><ellipse cx="120" cy="120" rx="3" ry="3" fill="#c9cbff"/></g><path class="egg-outline" d="M128 24 C82 24 48 98 48 150 C48 202 82 234 128 234 C174 234 208 202 208 150 C208 98 174 24 128 24Z" fill="none" stroke="#2f3190" stroke-width="6" stroke-linejoin="round"/></g><g class="shine"><ellipse cx="90" cy="84" rx="12" ry="22" fill="#fff" opacity="0.6" transform="rotate(22 90 84)"/><circle cx="76" cy="124" r="5" fill="#fff" opacity="0.6"/></g><g class="crack" opacity="0"><path d="M100 90 L122 118 L106 132 L132 160 L116 172 L140 200" fill="none" stroke="#fff" stroke-width="12" stroke-linecap="round" stroke-linejoin="round"/><path d="M100 90 L122 118 L106 132 L132 160 L116 172 L140 200" fill="none" stroke="#2f3190" stroke-width="5" stroke-linecap="round" stroke-linejoin="round"/></g></svg>
