<svg xmlns="http://www.w3.org/2000/svg" class="creature creature-c05 c05 state-egg" viewBox="0 0 256 256" width="256" height="256" role="img" aria-label="Embo egg"><ellipse class="shadow" cx="128" cy="240" rx="60" ry="8" fill="#2b2240" opacity="0.13"/><defs><clipPath id="c05-eclip"><path d="M128 24 C82 24 48 98 48 150 C48 202 82 234 128 234 C174 234 208 202 208 150 C208 98 174 24 128 24Z"/></clipPath></defs><g class="egg-body"><path d="M128 24 C82 24 48 98 48 150 C48 202 82 234 128 234 C174 234 208 202 208 150 C208 98 174 24 128 24Z" fill="#5b4560"/><g class="pattern" clip-path="url(#c05-eclip)"><path d="M40 250 L40 200 L70 180 L90 206 L116 176 L140 210 L168 180 L190 204 L220 186 L220 250Z" fill="#3a2a44"/><circle cx="90" cy="80" r="11" fill="#ff9a3d"/><circle cx="90" cy="80" r="5.5" fill="#ffe27a"/><circle cx="158" cy="66" r="8" fill="#ff9a3d"/><circle cx="158" cy="66" r="4" fill="#ffe27a"/><circle cx="170" cy="130" r="12" fill="#ff9a3d"/><circle cx="170" cy="130" r="6" fill="#ffe27a"/><circle cx="78" cy="138" r="8" fill="#ff9a3d"/><circle cx="78" cy="138" r="4" fill="#ffe27a"/><circle cx="120" cy="108" r="7" fill="#ff9a3d"/><circle cx="120" cy="108" r="3.5" fill="#ffe27a"/><circle cx="128" cy="214" r="9" fill="#ff9a3d"/><circle cx="128" cy="214" r="4.5" fill="#ffe27a"/><circle cx="66" cy="206" r="6" fill="#ff9a3d"/><circle cx="66" cy="206" r="3" fill="#ffe27a"/></g><path class="egg-outline" d="M128 24 C82 24 48 98 48 150 C48 202 82 234 128 234 C174 234 208 202 208 150 C208 98 174 24 128 24Z" fill="none" stroke="#2e2036" stroke-width="6" stroke-linejoin="round"/></g><g class="shine"><ellipse cx="90" cy="84" rx="12" ry="22" fill="#fff" opacity="0.6" transform="rotate(22 90 84)"/><circle cx="76" cy="124" r="5" fill="#fff" opacity="0.6"/></g><g class="crack" opacity="0"><path d="M100 90 L122 118 L106 132 L132 160 L116 172 L140 200" fill="none" stroke="#fff" stroke-width="12" stroke-linecap="round" stroke-linejoin="round"/><path d="M100 90 L122 118 L106 132 L132 160 L116 172 L140 200" fill="none" stroke="#2e2036" stroke-width="5" stroke-linecap="round" stroke-linejoin="round"/></g></svg>
